<svg width="158" height="42" viewBox="0 0 158 42" fill="none" xmlns="http://www.w3.org/2000/svg">
<path d="M10.9101 1.10352L0.399902 31.8983H6.57463L9.54376 22.9121H18.0833L21.1312 31.8983H27.4373L16.9009 1.10352H10.9101ZM16.5856 17.7884H11.0677L13.38 11.0094C13.5376 10.5364 13.6953 10.0897 13.8267 9.64303C13.9843 10.116 14.1157 10.5889 14.2996 11.0882L16.5856 17.7884Z" fill="white"/>
<path d="M37.8161 17.8672C34.9783 16.7374 34.663 16.2119 34.663 15.3974C34.663 14.3463 35.5301 13.7157 36.949 13.7157C38.6043 13.7157 39.9181 14.3726 40.5487 14.7667L41.7574 15.5287L43.3602 10.6415L42.6245 10.1685C41.2319 9.2489 39.1298 8.72339 37.0015 8.72339C32.2457 8.72339 28.8036 11.7188 28.8036 15.8703C28.8036 19.6802 32.1668 21.7035 35.0046 22.7282C37.8161 23.7792 38.0525 24.5149 38.0525 25.4083C38.0525 27.0899 36.2921 27.3264 35.2411 27.3264C33.612 27.3264 31.8515 26.6432 30.8531 26.0389L29.6444 25.3295L28.0679 30.2955L28.8299 30.7422C30.564 31.7669 32.8763 32.345 35.1622 32.345C40.3911 32.345 43.912 29.4022 43.912 25.0404C43.912 20.6524 40.4173 18.8394 37.8161 17.8672Z" fill="white"/>
<path d="M53.1871 3.83618L47.3014 5.62291V9.14382H44.1221V14.215H47.3014V24.2785C47.3014 27.0899 47.8532 29.0869 49.0356 30.4269C50.1917 31.6619 51.8996 32.3713 53.8965 32.3713C55.6833 32.3713 56.9708 32.0035 57.5751 31.7932L58.3634 31.5305L58.0481 26.4331L56.6817 26.8272C56.2876 26.9323 55.8146 27.0374 54.8424 27.0374C54.133 27.0374 53.1608 27.0374 53.1608 24.1734V14.215H58.4947V9.14382H53.1871V3.83618Z" fill="white"/>
<path d="M72.8676 8.93374L71.7903 8.77609C71.475 8.72354 71.1597 8.69727 70.7393 8.69727C68.8737 8.69727 67.1658 9.45925 65.852 10.7993L65.7732 9.14395H60.2554L60.3342 10.3263C60.4393 12.0868 60.5181 14.0837 60.5181 16.6587V31.8985H66.4827V19.8643C66.4827 19.3125 66.5352 18.7345 66.5878 18.3403C67.0344 15.9756 68.5059 14.5041 70.5028 14.5041C70.9757 14.5041 71.2648 14.5041 71.5275 14.5567L72.8939 14.8457L72.8676 8.93374Z" fill="white"/>
<path d="M83.7193 8.72339C77.0717 8.72339 72.4209 13.6369 72.4209 20.705C72.4209 27.5892 76.914 32.3713 83.3778 32.3713C88.843 32.3713 94.7025 28.6139 94.7025 20.3634C94.7287 13.5055 90.2094 8.72339 83.7193 8.72339ZM88.6854 20.4948C88.6854 24.4624 86.5308 27.3527 83.588 27.3527C80.6451 27.3527 78.5168 24.4887 78.5168 20.5999C78.5168 18.0774 79.5941 13.7945 83.6668 13.7945C87.6344 13.742 88.6854 18.1563 88.6854 20.4948Z" fill="white"/>
<path d="M114.278 3.54713C112.333 1.78668 109.364 0.893311 105.528 0.893311C102.953 0.893311 100.509 1.07724 98.2497 1.4451L97.3301 1.60275V31.8983H103.242V20.6524C103.846 20.705 104.477 20.7313 105.108 20.7313C109.101 20.7313 112.491 19.4963 114.646 17.2629C116.327 15.5287 117.168 13.2165 117.168 10.3787C117.142 7.61982 116.117 5.20248 114.278 3.54713ZM111.23 10.5627C111.23 14.8718 107.446 15.5025 105.186 15.5025C104.424 15.5025 103.794 15.4762 103.268 15.3974V6.1484C103.846 6.06957 104.635 6.0433 105.633 6.0433C108.156 6.0433 111.23 6.83156 111.23 10.5627Z" fill="white"/>
<path d="M135.272 25.855V18.1826C135.272 12.0604 132.092 8.72339 126.364 8.72339C123.71 8.72339 120.925 9.4591 119.007 10.6678L118.245 11.1407L119.848 15.8703L121.057 15.0558C122.292 14.215 124.078 13.7157 125.813 13.7157C127.021 13.6894 127.888 13.9785 128.466 14.5303C128.939 15.0032 129.228 15.7127 129.333 16.606C124.683 16.7374 121.293 17.841 119.191 19.9167C117.746 21.3619 117.01 23.1749 117.01 25.3557C117.01 28.8504 119.533 32.3713 124.42 32.3713C126.496 32.3713 128.44 31.7144 129.964 30.5583L130.122 31.9246H135.771L135.561 30.6371C135.377 29.3759 135.272 27.7731 135.272 25.855ZM125.34 27.379C124.446 27.379 122.975 27.0636 122.975 24.9353C122.975 24.1208 123.211 23.4639 123.737 22.9647C124.42 22.2815 125.97 21.4933 129.439 21.4407V23.8843C129.439 24.0682 129.412 24.3836 129.333 24.6989C128.913 25.9338 127.626 27.379 125.34 27.379Z" fill="white"/>
<path d="M151.694 9.1438L147.358 21.9399C147.253 22.2552 147.148 22.5968 147.043 22.9121C146.938 22.5968 146.833 22.2815 146.702 21.9925L141.972 9.1438H135.482L143.627 29.5598L143.654 29.6124C143.785 29.8751 143.838 30.0328 143.838 30.0853C143.785 30.1904 143.706 30.4006 143.654 30.532C142.944 32.0297 141.893 33.4486 140.842 34.2894L140.816 34.3157C139.633 35.3404 138.425 35.7871 137.926 35.9185L136.875 36.2601L138.399 41.3575L139.371 41.1736C139.975 41.0685 142.077 40.5692 144.494 38.546C147.385 35.971 149.303 31.8983 151.825 25.2769L158 9.1438H151.694Z" fill="white"/>
<path d="M22.1561 9.56426C25.9923 5.64922 32.5086 3.31071 39.5767 3.31071C42.3356 3.31071 45.0157 3.65229 47.5644 4.36172L47.7746 4.41427L52.294 3.04795L50.2708 2.25969C46.4083 0.788265 41.9678 0 37.3958 0C30.7481 0 24.5471 1.6028 19.9489 4.51938L19.4497 4.83468L21.3678 10.4313L22.1561 9.56426Z" fill="#20d4b2"/>
</svg>
