<svg xmlns="http://www.w3.org/2000/svg" xmlns:xlink="http://www.w3.org/1999/xlink" width="106.096" height="25.742" viewBox="0 0 106.096 25.742">
  <defs>
    <clipPath id="clip-path">
      <rect id="Rectangle_4085" data-name="Rectangle 4085" width="106.096" height="25.742" transform="translate(0 0)" fill="none"/>
    </clipPath>
  </defs>
  <g id="Group_3907" data-name="Group 3907" transform="translate(0 0)">
    <g id="Group_3906" data-name="Group 3906" clip-path="url(#clip-path)">
      <path id="Path_6293" data-name="Path 6293" d="M25.354,15.985A12.867,12.867,0,1,1,15.981.385a12.867,12.867,0,0,1,9.373,15.6" fill="#f7931a"/>
      <path id="Path_6294" data-name="Path 6294" d="M18.543,11.037C18.8,9.325,17.5,8.4,15.712,7.79l.578-2.32-1.412-.352-.563,2.259c-.371-.093-.752-.18-1.131-.267l.567-2.273-1.412-.352L11.761,6.8c-.308-.07-.609-.139-.9-.212V6.585L8.913,6.1,8.537,7.607s1.048.24,1.026.255a.751.751,0,0,1,.658.821l-.659,2.643a1.259,1.259,0,0,1,.147.047l-.149-.037-.924,3.7a.514.514,0,0,1-.647.335c.014.021-1.026-.256-1.026-.256l-.7,1.616,1.838.458c.342.086.677.176,1.007.26L8.522,19.8l1.41.352.579-2.322c.385.1.759.2,1.125.292l-.576,2.311,1.412.352.584-2.342c2.408.455,4.219.272,4.981-1.906a2.478,2.478,0,0,0-1.3-3.425A2.254,2.254,0,0,0,18.543,11.037Zm-3.227,4.525c-.436,1.754-3.389.806-4.346.568l.775-3.109c.958.239,4.027.712,3.571,2.541m.437-4.55c-.4,1.6-2.856.785-3.653.586l.7-2.82c.8.2,3.365.57,2.95,2.234" fill="#fff"/>
      <path id="Path_6295" data-name="Path 6295" d="M36.883,9.337a4.973,4.973,0,0,1,2.187.449A4.408,4.408,0,0,1,40.6,11,5.106,5.106,0,0,1,41.5,12.79,8.185,8.185,0,0,1,41.785,15a9.009,9.009,0,0,1-2.5,6.259,8.594,8.594,0,0,1-2.741,1.9,8.363,8.363,0,0,1-3.423.7c-.159,0-.438,0-.833-.012a12.318,12.318,0,0,1-1.355-.118,15.859,15.859,0,0,1-1.621-.318,8.147,8.147,0,0,1-1.621-.579L32.247,3.674l4.083-.633L34.7,9.839a6.216,6.216,0,0,1,1.052-.368A4.661,4.661,0,0,1,36.883,9.337ZM33.458,20.618A3.581,3.581,0,0,0,35.2,20.17a4.576,4.576,0,0,0,1.411-1.2,6.048,6.048,0,0,0,.935-1.7,5.782,5.782,0,0,0,.343-1.977,3.889,3.889,0,0,0-.422-1.976A1.654,1.654,0,0,0,35.91,12.6a4.825,4.825,0,0,0-.961.132,2.4,2.4,0,0,0-1.069.554L32.142,20.51c.105.019.2.036.276.053a1.906,1.906,0,0,0,.249.039,2.86,2.86,0,0,0,.318.016Z" fill="#4d4d4d"/>
      <path id="Path_6296" data-name="Path 6296" d="M46.02,23.489h-3.9L45.414,9.63H49.34Zm1.9-15.548a2.42,2.42,0,0,1-1.476-.487,1.721,1.721,0,0,1-.66-1.489,2.485,2.485,0,0,1,.223-1.04,2.8,2.8,0,0,1,.594-.843,2.91,2.91,0,0,1,.856-.567,2.611,2.611,0,0,1,1.042-.21,2.426,2.426,0,0,1,1.475.486,1.74,1.74,0,0,1,.658,1.49,2.453,2.453,0,0,1-.224,1.041,2.733,2.733,0,0,1-.592.844,2.828,2.828,0,0,1-.856.565A2.555,2.555,0,0,1,47.918,7.941Z" fill="#4d4d4d"/>
      <path id="Path_6297" data-name="Path 6297" d="M52.758,6.177l4.085-.633-1,4.085h4.375l-.79,3.214H55.076l-1.158,4.848a5.473,5.473,0,0,0-.184,1.132,2.064,2.064,0,0,0,.131.91,1.146,1.146,0,0,0,.566.592,2.6,2.6,0,0,0,1.172.212,6.265,6.265,0,0,0,1.227-.119,8.758,8.758,0,0,0,1.2-.329l.29,3a13.864,13.864,0,0,1-1.712.5,9.852,9.852,0,0,1-2.188.211,6.043,6.043,0,0,1-2.82-.539,3.127,3.127,0,0,1-1.424-1.477,4.693,4.693,0,0,1-.368-2.146,13.922,13.922,0,0,1,.368-2.557Z" fill="#4d4d4d"/>
      <path id="Path_6298" data-name="Path 6298" d="M60.043,17.956a9.734,9.734,0,0,1,.579-3.373,8.3,8.3,0,0,1,1.662-2.769,7.772,7.772,0,0,1,2.623-1.87,8.387,8.387,0,0,1,3.437-.685,9.092,9.092,0,0,1,2.121.225,8.561,8.561,0,0,1,1.7.592L70.82,13.134c-.351-.142-.716-.268-1.093-.382a4.76,4.76,0,0,0-1.383-.172,3.866,3.866,0,0,0-3.1,1.343A5.384,5.384,0,0,0,64.1,17.534a3.711,3.711,0,0,0,.581,2.174,2.43,2.43,0,0,0,2.134.83,6.848,6.848,0,0,0,1.476-.157,7.35,7.35,0,0,0,1.265-.4l.292,3.135a14.212,14.212,0,0,1-1.634.515,9.09,9.09,0,0,1-2.136.222,7.2,7.2,0,0,1-2.766-.473,5.27,5.27,0,0,1-1.87-1.279,4.823,4.823,0,0,1-1.068-1.885A7.747,7.747,0,0,1,60.043,17.956Z" fill="#4d4d4d"/>
      <path id="Path_6299" data-name="Path 6299" d="M77.367,23.858a6.368,6.368,0,0,1-2.425-.423,4.48,4.48,0,0,1-1.7-1.186,5.128,5.128,0,0,1-1.014-1.8,7.294,7.294,0,0,1-.341-2.3,10.184,10.184,0,0,1,.512-3.163,8.946,8.946,0,0,1,1.517-2.845,8.094,8.094,0,0,1,2.449-2.072,6.742,6.742,0,0,1,3.318-.8,6.421,6.421,0,0,1,2.413.423,4.511,4.511,0,0,1,1.713,1.186,5.13,5.13,0,0,1,1.012,1.805,7.3,7.3,0,0,1,.343,2.305,10.5,10.5,0,0,1-.5,3.164,9.117,9.117,0,0,1-1.476,2.845,7.721,7.721,0,0,1-2.437,2.067A6.914,6.914,0,0,1,77.367,23.858ZM79.316,12.58a2.469,2.469,0,0,0-1.527.5,4.317,4.317,0,0,0-1.105,1.266,6.257,6.257,0,0,0-.675,1.673,7.234,7.234,0,0,0-.222,1.726,4.2,4.2,0,0,0,.421,2.057,1.61,1.61,0,0,0,1.528.737,2.45,2.45,0,0,0,1.529-.5,4.333,4.333,0,0,0,1.106-1.264,6.267,6.267,0,0,0,.674-1.673,7.335,7.335,0,0,0,.223-1.726,4.176,4.176,0,0,0-.423-2.056,1.611,1.611,0,0,0-1.529-.737" fill="#4d4d4d"/>
      <path id="Path_6300" data-name="Path 6300" d="M89.416,23.489h-3.9L88.806,9.63h3.929Zm1.9-15.548a2.418,2.418,0,0,1-1.476-.487,1.725,1.725,0,0,1-.659-1.489,2.471,2.471,0,0,1,.224-1.04A2.746,2.746,0,0,1,90,4.082a2.9,2.9,0,0,1,.856-.567,2.593,2.593,0,0,1,1.039-.21,2.433,2.433,0,0,1,1.478.486,1.741,1.741,0,0,1,.659,1.49A2.5,2.5,0,0,1,93.8,6.322a2.731,2.731,0,0,1-.591.844,2.865,2.865,0,0,1-.856.565A2.564,2.564,0,0,1,91.312,7.941Z" fill="#4d4d4d"/>
      <path id="Path_6301" data-name="Path 6301" d="M95.545,10.261c.3-.087.627-.191.986-.3s.764-.219,1.214-.314a14.691,14.691,0,0,1,1.5-.238,16.824,16.824,0,0,1,1.883-.094q3.085,0,4.257,1.794t.41,4.9L104,23.489h-3.925l1.738-7.326c.106-.457.19-.9.251-1.332a3.148,3.148,0,0,0-.014-1.132,1.353,1.353,0,0,0-.486-.792,1.886,1.886,0,0,0-1.173-.3,7.954,7.954,0,0,0-1.554.16L96.282,23.488H92.355Z" fill="#4d4d4d"/>
    </g>
  </g>
</svg>
