<svg xmlns="http://www.w3.org/2000/svg" xmlns:xlink="http://www.w3.org/1999/xlink" width="124.723" height="28.779" viewBox="0 0 124.723 28.779">
  <defs>
    <clipPath id="clip-path">
      <rect id="Rectangle_4057" data-name="Rectangle 4057" width="124.723" height="28.779" transform="translate(0 0)" fill="none"/>
    </clipPath>
  </defs>
  <g id="Group_3894" data-name="Group 3894" transform="translate(0 0)">
    <g id="Group_3893" data-name="Group 3893" clip-path="url(#clip-path)">
      <path id="Path_6165" data-name="Path 6165" d="M38.215,10.325c0-1.706-.887-1.591-1.745-1.611V8.219c.734.038,1.5.038,2.24.038.8,0,1.878-.038,3.279-.038,4.908,0,7.586,3.278,7.586,6.633,0,1.878-1.1,6.6-7.806,6.6-.962,0-1.858-.038-2.744-.038-.858,0-1.687.019-2.545.038v-.5c1.134-.115,1.687-.153,1.744-1.44V10.325Zm1.858,8.892c0,1.458,1.048,1.63,1.973,1.63,4.1,0,5.442-3.088,5.442-5.919,0-3.545-2.278-6.1-5.938-6.1-.781,0-1.134.057-1.477.076Z" fill="#fff"/>
      <path id="Path_6166" data-name="Path 6166" d="M38.215,10.325c0-1.706-.887-1.591-1.745-1.611V8.219c.734.038,1.5.038,2.24.038.8,0,1.878-.038,3.279-.038,4.908,0,7.586,3.278,7.586,6.633,0,1.878-1.1,6.6-7.806,6.6-.962,0-1.858-.038-2.744-.038-.858,0-1.687.019-2.545.038v-.5c1.134-.115,1.687-.153,1.744-1.44V10.325Zm1.858,8.892c0,1.458,1.048,1.63,1.973,1.63,4.1,0,5.442-3.088,5.442-5.919,0-3.545-2.278-6.1-5.938-6.1-.781,0-1.134.057-1.477.076Z" fill="none" stroke="#fff" stroke-miterlimit="10" stroke-width="0.25"/>
      <path id="Path_6167" data-name="Path 6167" d="M50.242,20.96H50.6c.534,0,.906,0,.906-.629V15.194c0-.838-.286-.953-.982-1.324v-.305a19.4,19.4,0,0,0,2.03-.686.664.664,0,0,1,.343-.1c.095,0,.133.115.133.267v7.281c0,.629.42.629.944.629H54.3v.5c-.648,0-1.306-.038-1.992-.038s-1.363.019-2.068.038Zm2.03-11.093a.929.929,0,1,1,0-1.858.922.922,0,0,1,.924.914.942.942,0,0,1-.924.944" fill="#fff"/>
      <path id="Path_6168" data-name="Path 6168" d="M50.242,20.96H50.6c.534,0,.906,0,.906-.629V15.194c0-.838-.286-.953-.982-1.324v-.305a19.4,19.4,0,0,0,2.03-.686.664.664,0,0,1,.343-.1c.095,0,.133.115.133.267v7.281c0,.629.42.629.944.629H54.3v.5c-.648,0-1.306-.038-1.992-.038s-1.363.019-2.068.038Zm2.03-11.093a.929.929,0,1,1,0-1.858.922.922,0,0,1,.924.914A.942.942,0,0,1,52.272,9.867Z" fill="none" stroke="#fff" stroke-miterlimit="10" stroke-width="0.25"/>
      <path id="Path_6169" data-name="Path 6169" d="M56.094,15.309c0-.7-.21-.886-1.1-1.248V13.7c.81-.266,1.592-.514,2.5-.9.057,0,.114.038.114.191v1.239A5.535,5.535,0,0,1,60.888,12.8c1.61,0,2.182,1.173,2.182,2.65v4.889c0,.629.42.629.944.629h.343v.5c-.667,0-1.325-.038-2.011-.038s-1.363.019-2.049.038v-.5h.343c.534,0,.9,0,.9-.629V15.433c0-1.087-.657-1.611-1.744-1.611a5.045,5.045,0,0,0-2.2.915v5.6c0,.629.419.629.953.629H58.9v.5c-.667,0-1.325-.038-2.011-.038s-1.363.019-2.049.038v-.5h.343c.534,0,.9,0,.9-.629V15.309Z" fill="#fff"/>
      <path id="Path_6170" data-name="Path 6170" d="M56.094,15.309c0-.7-.21-.886-1.1-1.248V13.7c.81-.266,1.592-.514,2.5-.9.057,0,.114.038.114.191v1.239A5.535,5.535,0,0,1,60.888,12.8c1.61,0,2.182,1.173,2.182,2.65v4.889c0,.629.42.629.944.629h.343v.5c-.667,0-1.325-.038-2.011-.038s-1.363.019-2.049.038v-.5h.343c.534,0,.9,0,.9-.629V15.433c0-1.087-.657-1.611-1.744-1.611a5.045,5.045,0,0,0-2.2.915v5.6c0,.629.419.629.953.629H58.9v.5c-.667,0-1.325-.038-2.011-.038s-1.363.019-2.049.038v-.5h.343c.534,0,.9,0,.9-.629V15.309Z" fill="none" stroke="#fff" stroke-miterlimit="10" stroke-width="0.25"/>
      <path id="Path_6171" data-name="Path 6171" d="M65.805,16.224a4.745,4.745,0,0,0,0,1.1c.115,1.8,1.268,3.278,2.783,3.278a3.677,3.677,0,0,0,2.564-1.267l.267.267a4.465,4.465,0,0,1-3.507,2.144c-3.012,0-3.622-2.916-3.622-4.136,0-3.717,2.5-4.813,3.831-4.813a3,3,0,0,1,3.2,2.973,2.089,2.089,0,0,1-.019.344l-.171.114Zm3.355-.61c.477,0,.524-.248.524-.477a1.606,1.606,0,0,0-1.649-1.744c-1.153,0-1.953.849-2.182,2.221Z" fill="#fff"/>
      <path id="Path_6172" data-name="Path 6172" d="M65.805,16.224a4.745,4.745,0,0,0,0,1.1c.115,1.8,1.268,3.278,2.783,3.278a3.677,3.677,0,0,0,2.564-1.267l.267.267a4.465,4.465,0,0,1-3.507,2.144c-3.012,0-3.622-2.916-3.622-4.136,0-3.717,2.5-4.813,3.831-4.813a3,3,0,0,1,3.2,2.973,2.089,2.089,0,0,1-.019.344l-.171.114Zm3.355-.61c.477,0,.524-.248.524-.477a1.606,1.606,0,0,0-1.649-1.744c-1.153,0-1.953.849-2.182,2.221Z" fill="none" stroke="#fff" stroke-miterlimit="10" stroke-width="0.25"/>
      <path id="Path_6173" data-name="Path 6173" d="M71.752,20.961h.515c.533,0,.9,0,.9-.629V15c0-.59-.7-.7-.982-.857v-.286c1.382-.591,2.145-1.077,2.316-1.077.115,0,.172.057.172.248v1.706h.038c.476-.734,1.268-1.954,2.421-1.954a1.031,1.031,0,0,1,1.077,1,.924.924,0,0,1-.887.972c-.591,0-.591-.458-1.248-.458A1.6,1.6,0,0,0,74.7,15.872v4.45c0,.629.381.629.9.629H76.66v.5c-1.039-.019-1.839-.038-2.649-.038-.782,0-1.573.019-2.259.038Z" fill="#fff"/>
      <path id="Path_6174" data-name="Path 6174" d="M71.752,20.961h.515c.533,0,.9,0,.9-.629V15c0-.59-.7-.7-.982-.857v-.286c1.382-.591,2.145-1.077,2.316-1.077.115,0,.172.057.172.248v1.706h.038c.476-.734,1.268-1.954,2.421-1.954a1.031,1.031,0,0,1,1.077,1,.924.924,0,0,1-.887.972c-.591,0-.591-.458-1.248-.458A1.6,1.6,0,0,0,74.7,15.872v4.45c0,.629.381.629.9.629H76.66v.5c-1.039-.019-1.839-.038-2.649-.038-.782,0-1.573.019-2.259.038Z" fill="none" stroke="#fff" stroke-miterlimit="10" stroke-width="0.25"/>
      <path id="Path_6175" data-name="Path 6175" d="M79.053,18.816a2.508,2.508,0,0,0,2.392,2.316,1.343,1.343,0,0,0,1.535-1.344c0-2.24-4.127-1.515-4.127-4.565,0-1.067.858-2.43,2.935-2.43a4.971,4.971,0,0,1,2.164.553l.133,1.934h-.438A1.953,1.953,0,0,0,81.579,13.4,1.33,1.33,0,0,0,80.1,14.651c0,2.221,4.394,1.535,4.394,4.518,0,1.248-1,2.582-3.26,2.582a5.079,5.079,0,0,1-2.315-.638l-.21-2.183Z" fill="#fff"/>
      <path id="Path_6176" data-name="Path 6176" d="M79.053,18.816a2.508,2.508,0,0,0,2.392,2.316,1.343,1.343,0,0,0,1.535-1.344c0-2.24-4.127-1.515-4.127-4.565,0-1.067.858-2.43,2.935-2.43a4.971,4.971,0,0,1,2.164.553l.133,1.934h-.438A1.953,1.953,0,0,0,81.579,13.4,1.33,1.33,0,0,0,80.1,14.651c0,2.221,4.394,1.535,4.394,4.518,0,1.248-1,2.582-3.26,2.582a5.079,5.079,0,0,1-2.315-.638l-.21-2.183Z" fill="none" stroke="#fff" stroke-miterlimit="10" stroke-width="0.25"/>
      <path id="Path_6177" data-name="Path 6177" d="M101.621,11.649h-.477c-.362-2.221-1.934-3.107-4.05-3.107-2.182,0-5.347,1.458-5.347,6,0,3.831,2.736,6.586,5.652,6.586a3.854,3.854,0,0,0,3.812-3.279l.439.115-.439,2.773a10.64,10.64,0,0,1-4.193,1c-4.432,0-7.243-2.859-7.243-7.129,0-3.888,3.469-6.671,7.186-6.671a13.577,13.577,0,0,1,4.469,1.01Z" fill="#fff"/>
      <path id="Path_6178" data-name="Path 6178" d="M101.621,11.649h-.477c-.362-2.221-1.934-3.107-4.05-3.107-2.182,0-5.347,1.458-5.347,6,0,3.831,2.736,6.586,5.652,6.586a3.854,3.854,0,0,0,3.812-3.279l.439.115-.439,2.773a10.64,10.64,0,0,1-4.193,1c-4.432,0-7.243-2.859-7.243-7.129,0-3.888,3.469-6.671,7.186-6.671a13.577,13.577,0,0,1,4.469,1.01Z" fill="none" stroke="#fff" stroke-miterlimit="10" stroke-width="0.25"/>
      <path id="Path_6179" data-name="Path 6179" d="M102.3,20.961h.362c.534,0,.915,0,.915-.629V9.782c0-1.23-.286-1.277-1.01-1.477V7.99a11.256,11.256,0,0,0,1.954-.82,1.955,1.955,0,0,1,.419-.209c.114,0,.152.114.152.267V20.322c0,.629.42.629.953.629h.324v.5c-.638,0-1.305-.038-1.991-.038s-1.363.019-2.068.038v-.486Z" fill="#fff"/>
      <path id="Path_6180" data-name="Path 6180" d="M102.3,20.961h.362c.534,0,.915,0,.915-.629V9.782c0-1.23-.286-1.277-1.01-1.477V7.99a11.256,11.256,0,0,0,1.954-.82,1.955,1.955,0,0,1,.419-.209c.114,0,.152.114.152.267V20.322c0,.629.42.629.953.629h.324v.5c-.638,0-1.305-.038-1.991-.038s-1.363.019-2.068.038v-.486Z" fill="none" stroke="#fff" stroke-miterlimit="10" stroke-width="0.25"/>
      <path id="Path_6181" data-name="Path 6181" d="M114.477,20.408c0,.343.21.362.534.362.228,0,.514-.019.762-.019v.4a19.422,19.422,0,0,0-2.735.591l-.1-.057V20.151c-1.135.924-2.011,1.591-3.355,1.591a2.042,2.042,0,0,1-2.087-2.249V14.642c0-.495-.077-.972-1.134-1.058v-.362c.686-.019,2.192-.133,2.439-.133.21,0,.21.133.21.552V18.53c0,.572,0,2.2,1.649,2.2a4.255,4.255,0,0,0,2.287-1.153v-5.1c0-.381-.905-.581-1.591-.781v-.344c1.705-.114,2.773-.266,2.954-.266.152,0,.152.133.152.343v6.976Z" fill="#fff"/>
      <path id="Path_6182" data-name="Path 6182" d="M114.477,20.408c0,.343.21.362.534.362.228,0,.514-.019.762-.019v.4a19.422,19.422,0,0,0-2.735.591l-.1-.057V20.151c-1.135.924-2.011,1.591-3.355,1.591a2.042,2.042,0,0,1-2.087-2.249V14.642c0-.495-.077-.972-1.134-1.058v-.362c.686-.019,2.192-.133,2.439-.133.21,0,.21.133.21.552V18.53c0,.572,0,2.2,1.649,2.2a4.255,4.255,0,0,0,2.287-1.153v-5.1c0-.381-.905-.581-1.591-.781v-.344c1.705-.114,2.773-.266,2.954-.266.152,0,.152.133.152.343v6.976Z" fill="none" stroke="#fff" stroke-miterlimit="10" stroke-width="0.25"/>
      <path id="Path_6183" data-name="Path 6183" d="M118.242,14.156a4.837,4.837,0,0,1,2.831-1.363c2.2,0,3.526,1.916,3.526,3.984a4.791,4.791,0,0,1-4.537,4.965,5.7,5.7,0,0,1-2.63-.657l-.572.438-.4-.21a22.032,22.032,0,0,0,.267-3.373V9.782c0-1.23-.286-1.277-1-1.478V7.99a11.335,11.335,0,0,0,1.954-.82,1.955,1.955,0,0,1,.419-.209c.114,0,.153.114.153.266v6.929Zm0,5.156a2.041,2.041,0,0,0,1.954,1.935c2.03,0,2.878-1.992,2.878-3.679,0-2.049-1.554-3.755-3.031-3.755a2.913,2.913,0,0,0-1.8.9Z" fill="#fff"/>
      <path id="Path_6184" data-name="Path 6184" d="M118.242,14.156a4.837,4.837,0,0,1,2.831-1.363c2.2,0,3.526,1.916,3.526,3.984a4.791,4.791,0,0,1-4.537,4.965,5.7,5.7,0,0,1-2.63-.657l-.572.438-.4-.21a22.032,22.032,0,0,0,.267-3.373V9.782c0-1.23-.286-1.277-1-1.478V7.99a11.335,11.335,0,0,0,1.954-.82,1.955,1.955,0,0,1,.419-.209c.114,0,.153.114.153.266v6.929Zm0,5.156a2.041,2.041,0,0,0,1.954,1.935c2.03,0,2.878-1.992,2.878-3.679,0-2.049-1.554-3.755-3.031-3.755a2.913,2.913,0,0,0-1.8.9Z" fill="none" stroke="#fff" stroke-miterlimit="10" stroke-width="0.25"/>
      <path id="Path_6185" data-name="Path 6185" d="M15.571.006h1.048q-.536-.012-1.048,0" fill="#344693"/>
      <path id="Path_6186" data-name="Path 6186" d="M16.62,28.767H14.97c.54.015,1.087.015,1.65,0" fill="#344693"/>
      <path id="Path_6187" data-name="Path 6187" d="M33.072,16.656c.007-.054.015-.107.023-.16a14.041,14.041,0,0,0,.152-2.045,14.366,14.366,0,0,0-.92-5.048C30.206,3.974,24.541.165,16.619,0H15.57C10.263.112,6.325,1.861,3.733,4.575A14.264,14.264,0,0,0,.007,13.7v.076c-.007.107-.007.2-.007.312v.471c0,.107,0,.213.007.312v.015A14.239,14.239,0,0,0,5.839,25.931a16.882,16.882,0,0,0,9.153,2.836h1.65c5.87-.213,10.462-2.289,13.32-5.505a13.855,13.855,0,0,0,3.125-6.568.051.051,0,0,1-.015-.038M14.521,27.52A13.165,13.165,0,1,1,27.689,14.36,13.16,13.16,0,0,1,14.521,27.52" fill="#2746a8"/>
      <path id="Path_6188" data-name="Path 6188" d="M17.509,6.575V22.146a8.334,8.334,0,0,0,0-15.571" fill="#2746a8"/>
      <path id="Path_6189" data-name="Path 6189" d="M6.174,14.36a8.357,8.357,0,0,0,5.352,7.785V6.575A8.367,8.367,0,0,0,6.174,14.36" fill="#2746a8"/>
    </g>
  </g>
</svg>
