<svg xmlns="http://www.w3.org/2000/svg" xmlns:xlink="http://www.w3.org/1999/xlink" width="102.147" height="18" viewBox="0 0 102.147 18">
  <defs>
    <clipPath id="clip-path">
      <rect id="Rectangle_4083" data-name="Rectangle 4083" width="102.147" height="17.846" transform="translate(0 0)" fill="none"/>
    </clipPath>
    <linearGradient id="linear-gradient" x1="0.895" y1="0.804" x2="0.144" y2="0.158" gradientUnits="objectBoundingBox">
      <stop offset="0" stop-color="#fbb03b"/>
      <stop offset="1" stop-color="#f15a24"/>
    </linearGradient>
  </defs>
  <g id="Group_3903" data-name="Group 3903" transform="translate(0 0)">
    <g id="Group_3902" data-name="Group 3902">
      <g id="Group_3901" data-name="Group 3901" clip-path="url(#clip-path)">
        <path id="Path_6281" data-name="Path 6281" d="M3.777,1.173A8.434,8.434,0,0,1,9.161,2.584a7.169,7.169,0,0,1,2.778,5.84,6.907,6.907,0,0,1-2.908,5.839,8.31,8.31,0,0,1-5.3,1.389H0V1.173ZM2.822,13.221H3.69a6.058,6.058,0,0,0,3.539-.955,4.711,4.711,0,0,0,1.8-3.842A4.825,4.825,0,0,0,7.251,4.56,5.891,5.891,0,0,0,3.69,3.605H2.822Z" fill="#fff"/>
        <rect id="Rectangle_4082" data-name="Rectangle 4082" width="2.822" height="14.479" transform="translate(14.547 1.173)" fill="#fff"/>
        <path id="Path_6282" data-name="Path 6282" d="M27.79,4.472a2.827,2.827,0,0,0-2.366-1.237c-1.519,0-2,.955-2,1.693a1.218,1.218,0,0,0,.456.977,4.926,4.926,0,0,0,1.736.825A8.427,8.427,0,0,1,28.55,8.184a3.94,3.94,0,0,1,1.237,3.039c0,2.822-2.04,4.754-5.036,4.754a5.962,5.962,0,0,1-4.993-2.734L21.6,11.484a3.4,3.4,0,0,0,3.04,1.932,2.031,2.031,0,0,0,2.236-2,1.679,1.679,0,0,0-.565-1.3,6.472,6.472,0,0,0-2.236-1.064,6.961,6.961,0,0,1-2.409-1.26A3.366,3.366,0,0,1,20.518,5.1c0-2.127,1.433-4.255,4.645-4.255a5.573,5.573,0,0,1,4.1,1.693Z" fill="#fff"/>
        <path id="Path_6283" data-name="Path 6283" d="M42.771,15.131a7.5,7.5,0,0,1-3.582.847,7.133,7.133,0,0,1-5.3-2.019A7.215,7.215,0,0,1,31.57,8.424a7.569,7.569,0,0,1,2.323-5.666A7.406,7.406,0,0,1,39.211.847a7.281,7.281,0,0,1,3.56.89v3.3a4.659,4.659,0,0,0-3.495-1.628,4.844,4.844,0,0,0-4.8,5.058,4.8,4.8,0,0,0,4.906,4.949,4.387,4.387,0,0,0,3.387-1.584Z" fill="#fff"/>
        <path id="Path_6284" data-name="Path 6284" d="M68.321,1.173,72.185,10.9l3.864-9.725h3.082L73.01,15.652H71.317L65.238,1.173Z" fill="#fff"/>
        <path id="Path_6285" data-name="Path 6285" d="M88.859,3.6h-5.21V6.839h4.993V9.27H83.649v3.95h5.21v2.432H80.827V1.173h8.032Z" fill="#fff"/>
        <path id="Path_6286" data-name="Path 6286" d="M95.786,1.173a5.322,5.322,0,0,1,3.691,1.086,4.111,4.111,0,0,1,1.433,3.256,3.955,3.955,0,0,1-1.694,3.408,4.011,4.011,0,0,1-1.584.63l4.515,6.1H98.63L94.766,9.835h-.347v5.817H91.6V1.173ZM94.419,7.838h.8c.543,0,2.779-.065,2.779-2.193,0-2.149-2.215-2.171-2.735-2.171h-.847Z" fill="#fff"/>
      </g>
    </g>
    <circle id="Ellipse_290" data-name="Ellipse 290" cx="9" cy="9" r="9" transform="translate(45.473 0)" fill="url(#linear-gradient)"/>
  </g>
</svg>
