<svg xmlns="http://www.w3.org/2000/svg" xmlns:xlink="http://www.w3.org/1999/xlink" width="107.313" height="25.816" viewBox="0 0 107.313 25.816">
  <defs>
    <clipPath id="clip-path">
      <rect id="Rectangle_4084" data-name="Rectangle 4084" width="107.313" height="25.816" transform="translate(0 0)" fill="none"/>
    </clipPath>
  </defs>
  <g id="Group_3905" data-name="Group 3905" transform="translate(0 0)">
    <g id="Group_3904" data-name="Group 3904" clip-path="url(#clip-path)">
      <path id="Path_6287" data-name="Path 6287" d="M18.372,0C8.2,0,0,4.9,0,11.023c0,2.638,1.507,4.994,4.051,6.878a8.463,8.463,0,0,1-1.979-5.182c0-6.312,8.1-11.494,18-11.494,6.407,0,12.06,2.167,15.263,5.37C32.505,2.732,25.909,0,18.372,0" fill="#8cc23c"/>
      <path id="Path_6288" data-name="Path 6288" d="M16.77,14.132a3.347,3.347,0,0,0,1.79-.471,1.712,1.712,0,0,0,.754-1.507,5.435,5.435,0,0,0-1.225-3.486,8.759,8.759,0,0,0-3.109-2.45,8.034,8.034,0,0,0-2.921-.565A7.31,7.31,0,0,0,6.689,7.82,6.888,6.888,0,0,0,4.616,13a7.044,7.044,0,0,0,2.167,5.182,7.463,7.463,0,0,0,5.465,2.072,13.384,13.384,0,0,0,3.392-.471,5.173,5.173,0,0,0,2.826-1.7,1.686,1.686,0,0,0,.471-1.224c0-1.037-.565-1.6-1.79-1.6a6.324,6.324,0,0,0-1.978.659,6.7,6.7,0,0,1-2.638.66,3.406,3.406,0,0,1-2.262-.66,2.377,2.377,0,0,1-1.036-1.79ZM10.175,9.7a2.8,2.8,0,0,1,1.979-.659,2.957,2.957,0,0,1,1.978.659,2.186,2.186,0,0,1,.848,1.79H9.139A3.755,3.755,0,0,1,10.175,9.7m11.683,8.48a7.241,7.241,0,0,0,5.37,2.072,6.863,6.863,0,0,0,3.3-.659c1.225-.565,1.884-1.319,1.884-2.073a2.249,2.249,0,0,0-.471-1.319,1.517,1.517,0,0,0-1.225-.565,4.17,4.17,0,0,0-1.319.282A4.91,4.91,0,0,1,27.7,16.2a3.124,3.124,0,0,1-2.45-1.036,4,4,0,0,1-.754-2.45,4.2,4.2,0,0,1,.754-2.45A2.672,2.672,0,0,1,27.6,9.233a5.893,5.893,0,0,1,1.79.283,4.746,4.746,0,0,0,1.319.282,2.25,2.25,0,0,0,1.32-.471A1.228,1.228,0,0,0,32.505,8.1a2.33,2.33,0,0,0-1.791-2.167,8.491,8.491,0,0,0-3.2-.471,7.537,7.537,0,0,0-5.559,2.073,6.887,6.887,0,0,0-2.072,5.276,7.409,7.409,0,0,0,1.978,5.371m12.814,0a7.38,7.38,0,0,0,5.464,2.167A7.382,7.382,0,0,0,45.6,18.184,6.963,6.963,0,0,0,47.674,13,7.176,7.176,0,0,0,45.6,7.725a7.316,7.316,0,0,0-5.465-2.072,7.018,7.018,0,0,0-5.37,2.167A7.172,7.172,0,0,0,32.693,13.1a6.473,6.473,0,0,0,1.979,5.088m3.2-7.632a2.572,2.572,0,0,1,2.261-1.131A2.685,2.685,0,0,1,42.4,10.552a3.85,3.85,0,0,1,.66,2.355,4.612,4.612,0,0,1-.66,2.356,2.571,2.571,0,0,1-2.261,1.13,2.684,2.684,0,0,1-2.261-1.13,3.858,3.858,0,0,1-.66-2.356,4.048,4.048,0,0,1,.66-2.355" fill="#0e5087"/>
      <path id="Path_6289" data-name="Path 6289" d="M61.805,3.014a8.377,8.377,0,0,0-5.273-1.6H52.387a3.351,3.351,0,0,0-2.452.656,3.206,3.206,0,0,0-.663,2.361V17.239c0,1.981.754,3.017,2.263,3.017q2.262-.138,2.262-3.108V13.941h3.109a7.644,7.644,0,0,0,5.089-1.6,5.944,5.944,0,0,0,1.883-4.617,5.691,5.691,0,0,0-2.073-4.709m-6.027,7.162H53.8v-4.9h1.981c2.072,0,3.109.846,3.109,2.446s-1.037,2.453-3.109,2.453" fill="#8cc23c"/>
      <path id="Path_6290" data-name="Path 6290" d="M76.693,5.841a2.5,2.5,0,0,0-2.164,1.318,4.516,4.516,0,0,0-3.581-1.508,6.269,6.269,0,0,0-5,2.262A7.479,7.479,0,0,0,64.068,12.9a7.4,7.4,0,0,0,1.79,5,6.258,6.258,0,0,0,4.991,2.262,5.13,5.13,0,0,0,3.771-1.508,2.084,2.084,0,0,0,2.073,1.508c1.41,0,2.164-1.036,2.164-3.016V8.858c0-1.981-.754-3.017-2.164-3.017m-3.017,9.326A2.341,2.341,0,0,1,71.512,16.2a2.554,2.554,0,0,1-2.171-1.036,3.776,3.776,0,0,1-.656-2.263,4.539,4.539,0,0,1,.656-2.256,2.554,2.554,0,0,1,2.171-1.036,2.671,2.671,0,0,1,2.164,1.036,3.557,3.557,0,0,1,.662,2.256,3.4,3.4,0,0,1-.662,2.263" fill="#8cc23c"/>
      <path id="Path_6291" data-name="Path 6291" d="M89.13,7.537,86.4,14.132,83.854,7.914A4.743,4.743,0,0,0,83.1,6.5a1.989,1.989,0,0,0-1.507-.566,2.14,2.14,0,0,0-1.508.566,1.914,1.914,0,0,0-.564,1.413,2.5,2.5,0,0,0,.282,1.13l4.428,9.705-1.79,3.674a3.178,3.178,0,0,0-.377,1.414,1.653,1.653,0,0,0,.565,1.413,2.217,2.217,0,0,0,1.6.565c.753,0,1.414-.565,1.978-1.6L92.993,9.327a3.168,3.168,0,0,0,.376-1.413c0-1.319-.753-1.979-2.167-1.979-.942-.094-1.6.471-2.072,1.6" fill="#8cc23c"/>
      <path id="Path_6292" data-name="Path 6292" d="M104.2,16.111H99.87l5.936-7.066a3.644,3.644,0,0,0,.942-1.79.979.979,0,0,0-.66-1.037,6.486,6.486,0,0,0-2.167-.188H96.855c-1.884,0-2.826.659-2.826,1.884,0,1.319.942,1.884,2.826,1.884h3.863l-6.03,7.349a2.367,2.367,0,0,0-.659,1.6c0,.848.753,1.319,2.355,1.319h8.1c1.884,0,2.826-.659,2.826-1.884-.377-1.413-1.319-2.073-3.109-2.073" fill="#8cc23c"/>
    </g>
  </g>
</svg>
