<svg xmlns="http://www.w3.org/2000/svg" xmlns:xlink="http://www.w3.org/1999/xlink" width="158.181" height="28.487" viewBox="0 0 158.181 28.487">
  <defs>
    <clipPath id="clip-path">
      <rect id="Rectangle_4051" data-name="Rectangle 4051" width="158.181" height="28.487" transform="translate(0 -0.001)" fill="none"/>
    </clipPath>
  </defs>
  <g id="Group_3881" data-name="Group 3881" transform="translate(0 0)">
    <g id="Group_3880" data-name="Group 3880" clip-path="url(#clip-path)">
      <path id="Path_6141" data-name="Path 6141" d="M70.006,20.707V14.768a3.523,3.523,0,0,0-3.744-3.744A3.646,3.646,0,0,0,62.906,12.7a3.635,3.635,0,0,0-3.1-1.678,3.042,3.042,0,0,0-2.711,1.42V11.282H55.03v9.425H57.1V15.414a2.148,2.148,0,0,1,2.324-2.453c1.42,0,2.065.9,2.065,2.453v5.293h2.066V15.414a2.148,2.148,0,0,1,2.324-2.453c1.42,0,2.065.9,2.065,2.453v5.293Zm30.6-9.425H97.246V8.442H95.18v2.84H93.244v1.937H95.18v4.26c0,2.195.9,3.486,3.228,3.486a4.651,4.651,0,0,0,2.582-.775l-.646-1.807a2.965,2.965,0,0,1-1.807.516c-1.033,0-1.42-.645-1.42-1.549V13.09H100.6Zm17.428-.258a2.77,2.77,0,0,0-2.453,1.42V11.282h-2.065v9.425h2.065V15.414c0-1.55.646-2.453,2.066-2.453a4.6,4.6,0,0,1,1.291.258l.645-1.937a6.483,6.483,0,0,0-1.549-.258M91.695,12.057a7.882,7.882,0,0,0-3.873-1.033c-2.324,0-3.873,1.162-3.873,2.969,0,1.55,1.162,2.453,3.227,2.841l.9.129c1.162.129,1.678.516,1.678,1.032,0,.775-.774,1.162-2.194,1.162a4.512,4.512,0,0,1-3.1-1.032l-.9,1.549a7.467,7.467,0,0,0,4.132,1.291c2.711,0,4.26-1.291,4.26-3.1,0-1.678-1.291-2.582-3.228-2.84L87.693,14.9c-.9-.129-1.55-.258-1.55-.9s.646-1.161,1.808-1.161a6,6,0,0,1,2.969.774Zm54.738-1.033a2.769,2.769,0,0,0-2.453,1.42V11.282h-2.066v9.425h2.066V15.414c0-1.55.645-2.453,2.066-2.453a4.6,4.6,0,0,1,1.291.258l.645-1.937a6.483,6.483,0,0,0-1.549-.258M120.1,16.059a4.71,4.71,0,0,0,5.034,4.906,5.061,5.061,0,0,0,3.357-1.162l-1.033-1.678a4.076,4.076,0,0,1-2.453.9,2.746,2.746,0,0,1-2.84-2.969A2.746,2.746,0,0,1,125,13.09a3.408,3.408,0,0,1,2.453.9l1.033-1.678a5.309,5.309,0,0,0-3.357-1.162,4.581,4.581,0,0,0-5.034,4.906m19.106,0V11.282h-2.065v1.162a3.676,3.676,0,0,0-2.97-1.42,4.692,4.692,0,0,0-4.647,4.906,4.692,4.692,0,0,0,4.647,4.906,3.676,3.676,0,0,0,2.97-1.42v1.161H139.2Zm-7.617,0a2.745,2.745,0,0,1,2.841-2.969,2.816,2.816,0,0,1,2.84,2.969,2.843,2.843,0,1,1-5.681,0m-24.658-5.035a4.616,4.616,0,0,0-4.647,4.906,4.644,4.644,0,0,0,4.777,4.906,5.857,5.857,0,0,0,3.873-1.291L109.9,18a4.44,4.44,0,0,1-2.711,1.033,2.741,2.741,0,0,1-2.841-2.324h6.972V15.93c.129-2.84-1.678-4.906-4.39-4.906m0,1.937a2.232,2.232,0,0,1,2.324,2.323h-4.776a2.342,2.342,0,0,1,2.452-2.323m51.253,3.1V7.538h-2.066v4.906a3.673,3.673,0,0,0-2.969-1.42A4.692,4.692,0,0,0,148.5,15.93a4.692,4.692,0,0,0,4.648,4.906,3.673,3.673,0,0,0,2.969-1.42v1.161h2.066Zm-7.617,0a2.744,2.744,0,0,1,2.84-2.969,2.816,2.816,0,0,1,2.84,2.969,2.843,2.843,0,1,1-5.68,0m-69.068,0V11.282H79.43v1.162a3.673,3.673,0,0,0-2.969-1.42,4.692,4.692,0,0,0-4.648,4.906,4.692,4.692,0,0,0,4.648,4.906,3.673,3.673,0,0,0,2.969-1.42v1.161H81.5Zm-7.617,0a2.744,2.744,0,0,1,2.84-2.969,2.816,2.816,0,0,1,2.84,2.969,2.843,2.843,0,1,1-5.68,0" fill="#fff"/>
      <path id="Path_6142" data-name="Path 6142" d="M22.888,25.355c.058.044.109.087.167.131h-.3a14.4,14.4,0,0,1-5.3-11.237,14.1,14.1,0,0,1,5.266-11.1h.422a17.3,17.3,0,0,1,2.058,2.2,14.192,14.192,0,0,1-2.32,20.009" fill="#ff5a00"/>
      <path id="Path_6143" data-name="Path 6143" d="M22.757,25.486a14.154,14.154,0,0,1-17.427,0A14.435,14.435,0,0,1,3,5.47,14.165,14.165,0,0,1,22.888,3.019c-.051.044-.109.08-.16.131a14.1,14.1,0,0,0-5.266,11.1,14.4,14.4,0,0,0,5.3,11.237" fill="#eb001b"/>
      <path id="Path_6144" data-name="Path 6144" d="M45.733,14.249A14.13,14.13,0,0,1,31.667,28.454a13.755,13.755,0,0,1-8.612-2.968c-.058-.044-.109-.087-.167-.131a14.192,14.192,0,0,0,2.32-20.008,17.244,17.244,0,0,0-2.059-2.2l-.261-.262A14.3,14.3,0,0,1,45.733,14.249" fill="#f79e1b"/>
    </g>
  </g>
</svg>
