<svg id="Group_3883" data-name="Group 3883" xmlns="http://www.w3.org/2000/svg" xmlns:xlink="http://www.w3.org/1999/xlink" width="139.164" height="24.149" viewBox="0 0 139.164 24.149">
  <defs>
    <clipPath id="clip-path">
      <rect id="Rectangle_4052" data-name="Rectangle 4052" width="139.164" height="24.149" transform="translate(0 0)" fill="none"/>
    </clipPath>
  </defs>
  <g id="Group_3882" data-name="Group 3882" clip-path="url(#clip-path)">
    <path id="Path_6145" data-name="Path 6145" d="M128.986,1.788C127.309.558,124.738,0,121.5,0h-8.718l-3.242,18h-11.4l.784-4.135h6.817l.783-4.583H99.7l.671-4.024h7.042L108.308,0H94L90.983,17.1H85.73L88.859,0H81.37L78.354,17.1H73.212L76.341,0H68.853L65.611,18H53.987l.671-4.135h6.93l.781-4.583h-6.93l.783-4.024h7.154L64.27,0H19.561L16.99,14.307,11.96,0H4.135L0,23.36H7.488L10.06,8.718,14.978,23.36h26.6l3.243-18h4.135l-3.242,18H115.8l2.012-11.4,3.24,11.4h7.489l-3.352-9.277.781-.223a6.867,6.867,0,0,0,4.024-2.46,7.821,7.821,0,0,0,1.453-4.694,6.082,6.082,0,0,0-2.459-4.918M35.1,18H23.7l.783-4.135h7.153l.782-4.583H25.372l.672-4.024h11.4C37.333,5.253,35.1,18,35.1,18m87.742-7.824a5.512,5.512,0,0,1-3.354.782h-1.452l1.117-6.259h1.119a4.921,4.921,0,0,1,2.794.671,2.647,2.647,0,0,1,1,2.235,3.151,3.151,0,0,1-1.229,2.571m13.972,10.842a.413.413,0,0,0-.336-.112,1.655,1.655,0,0,0,.782-.335,1.588,1.588,0,0,0,.224-.671c0-.223-.112-.335-.224-.559a1.55,1.55,0,0,0-.446-.335,1.661,1.661,0,0,0-.783-.112L134.464,19l.222,3.689h.447l-.111-1.677h.782c.112,0,.112,0,.224.112s.223.112.223.223a1.535,1.535,0,0,1,.335.447l.559.783h.559l-.669-1.006a.853.853,0,0,0-.224-.559" fill="#83ba3b"/>
    <path id="Path_6146" data-name="Path 6146" d="M136.14,20.454h-1.006l-.112-1.23,1.118-.111a.842.842,0,0,1,.559.111.581.581,0,0,1,.223.448.413.413,0,0,1-.111.335c-.112.112-.112.223-.224.223a.446.446,0,0,1-.447.224" fill="#83ba3b"/>
    <path id="Path_6147" data-name="Path 6147" d="M135.8,17.325a3.338,3.338,0,0,0-2.347,1.118,3.9,3.9,0,0,0-.894,2.459,3.3,3.3,0,1,0,6.594-.336,3.2,3.2,0,0,0-3.353-3.241" fill="#83ba3b"/>
    <path id="Path_6148" data-name="Path 6148" d="M138.711,20.678a2.8,2.8,0,0,1-5.589.112,3.121,3.121,0,0,1,.671-2.012,2.557,2.557,0,0,1,1.9-.894,2.766,2.766,0,0,1,2.906,2.682.11.11,0,0,1,.112.112" fill="#83ba3b"/>
  </g>
</svg>
