<svg id="Group_3892" data-name="Group 3892" xmlns="http://www.w3.org/2000/svg" xmlns:xlink="http://www.w3.org/1999/xlink" width="143.774" height="26.218" viewBox="0 0 143.774 26.218">
  <defs>
    <clipPath id="clip-path">
      <rect id="Rectangle_4056" data-name="Rectangle 4056" width="143.774" height="26.218" transform="translate(0 0)" fill="none"/>
    </clipPath>
  </defs>
  <g id="Group_3891" data-name="Group 3891" clip-path="url(#clip-path)">
    <path id="Path_6152" data-name="Path 6152" d="M8.188,8.418c1.605,0,3.211-.006,4.816,0a3.058,3.058,0,0,1,3.2,3.1q.068,4.656,0,9.313c-.026,1.882-1.352,3.028-3.6,3.071-3,.056-6.009.132-9-.025C1.364,23.762.063,22.945.02,20.126c-.04-2.65-.01-5.3-.008-7.953q0-3.759,3.779-3.755h4.4" fill="#e1011b"/>
    <path id="Path_6153" data-name="Path 6153" d="M.447,8.517a7.73,7.73,0,1,1,15.4-.168c-1-.486-2.032-.592-2.486-1.947C12.6,4.142,10.33,2.952,7.585,3.03a5.467,5.467,0,0,0-4.767,3.6A1.506,1.506,0,0,1,1.686,7.808a5.385,5.385,0,0,0-1.239.709" fill="#e1011b"/>
    <path id="Path_6154" data-name="Path 6154" d="M57.172,16.426c0,2.073.013,4.147,0,6.22-.018,2.3-1.112,3.685-3.489,3.564-1.894-.1-3.8-.043-5.7,0-.622.012-.832-.183-.775-.791.07-.75-.3-1.708.143-2.207.454-.514,1.428-.151,2.173-.172,1.168-.032,2.338-.011,3.506-.007a1.006,1.006,0,0,0,.977-.444c.368-.6.169-1.015-.535-1.024-1.169-.017-2.338,0-3.506-.007a2.721,2.721,0,0,1-2.741-2.689c-.03-3.007,0-6.015-.021-9.023,0-.556.194-.671.71-.677,2.354-.031,2.354-.046,2.354,2.265,0,1.956.015,3.913-.007,5.869-.009.768.26,1.147,1.079,1.075.521-.046,1.051,0,1.577-.009.985-.007,1.242-.25,1.245-1.235.008-2.394.023-4.789-.011-7.184-.009-.6.142-.789.768-.785,2.253.012,2.253-.013,2.253,2.272v4.994" fill="#058cca"/>
    <path id="Path_6155" data-name="Path 6155" d="M22.212,18.933q0-3.108,0-6.215c.006-2.492,1.059-3.542,3.544-3.542,1.109,0,2.219,0,3.328,0,2.044.009,3.151,1.034,3.192,3.058.043,2.187.035,4.377,0,6.564a2.883,2.883,0,0,1-2.823,2.755c-.759.007-1.518,0-2.277,0-1.8,0-1.8,0-1.8,1.84,0,.729-.021,1.46.007,2.188.017.444-.114.638-.587.615a15.666,15.666,0,0,0-1.926,0c-.565.042-.679-.191-.674-.7.024-2.188.011-4.377.011-6.565m3.169-3.526c0,.7.02,1.4-.006,2.1-.024.643.268.9.89.884.642-.018,1.286-.031,1.926,0a.91.91,0,0,0,1.069-.975c.042-1.34.048-2.684,0-4.024-.026-.669-.334-1.154-1.166-1.067a16.188,16.188,0,0,1-1.749.012.848.848,0,0,0-.962.968c0,.7,0,1.4,0,2.1" fill="#058cca"/>
    <path id="Path_6156" data-name="Path 6156" d="M81,15.713a22.223,22.223,0,0,1-.152,3.839,2.438,2.438,0,0,1-2.5,2q-2.279.014-4.555,0a2.485,2.485,0,0,1-2.776-2.374,11.159,11.159,0,0,1,.046-3.9c.223-1.289,1.439-2,3.329-2.045.992-.021,1.986,0,2.978-.011.205,0,.536.138.583-.189a.569.569,0,0,0-.481-.629,3.655,3.655,0,0,0-.776-.066c-1.636-.006-3.271-.02-4.906.007-.531.008-.826-.082-.764-.706.077-.779-.309-1.779.147-2.288s1.488-.182,2.259-.164a31.793,31.793,0,0,1,5.317.144A2.452,2.452,0,0,1,81,12.049c.016,1.138,0,2.276,0,3.664m-5.022,2.673c.348,0,.7-.018,1.044,0,.695.044,1-.234.989-.96s-.18-1.191-1.006-1.174c-.666.013-1.335.024-2,0-.7-.03-.986.232-.949.97.054,1.071.09,1.156,1.139,1.164.261,0,.522,0,.783,0" fill="#058cca"/>
    <path id="Path_6157" data-name="Path 6157" d="M44.681,15.37c0,1.168.009,2.336,0,3.5A2.593,2.593,0,0,1,42,21.554q-2.234.006-4.468,0a2.57,2.57,0,0,1-2.823-2.8c0-.934-.015-1.869,0-2.8a2.546,2.546,0,0,1,2.407-2.587c1.194-.175,2.384-.078,3.572-.15.323-.02.9.285.933-.279.036-.64-.556-.6-1.033-.6-1.694.005-3.389-.031-5.082.019-.665.019-.882-.175-.81-.828.082-.747-.305-1.719.149-2.195s1.439-.163,2.186-.145a34.241,34.241,0,0,1,5.49.151,2.432,2.432,0,0,1,2.158,2.616c0,1.139,0,2.277,0,3.415m-4.914,3.016c.378,0,.759-.027,1.134.006.648.058.816-.272.769-.841-.046-.55.179-1.259-.737-1.286-.814-.025-1.63.016-2.444-.015a.692.692,0,0,0-.737.593c-.326,1.047.046,1.54,1.142,1.543h.873" fill="#058cca"/>
    <path id="Path_6158" data-name="Path 6158" d="M90.5,15.228c0-.964.059-1.932-.012-2.89a2.565,2.565,0,0,1,2.429-3.067,18.889,18.889,0,0,1,5.055-.007c2.2.335,2.271,1.278,2.477,2.99a4.624,4.624,0,0,1-.074,2.33c-.3.638-1.3.615-1.986.905-1.359.578-2.751,1.078-4.118,1.639-.315.129-.812.194-.667.744.12.453.485.5.9.5,1.724-.014,3.448.014,5.171-.016.612-.011.8.2.806.809.022,2.391.041,2.391-2.315,2.391-1.636,0-3.272.007-4.909,0A2.624,2.624,0,0,1,90.5,18.819c-.008-1.2,0-2.394,0-3.591m5.036-2.889c-1.811,0-2.145.273-1.987,1.521.043.342.133.479.491.339.969-.379,1.943-.746,2.918-1.111.142-.053.29-.1.3-.269.012-.21-.17-.274-.325-.353-.471-.241-.976-.071-1.4-.127" fill="#058cca"/>
    <path id="Path_6159" data-name="Path 6159" d="M63.226,21.555c-1.051,0-2.1-.021-3.153.009-.5.014-.678-.148-.646-.649a13.446,13.446,0,0,0,0-1.75c-.04-.611.194-.824.807-.811,1.517.033,3.036,0,4.555.016.481,0,.935-.054.925-.639s-.395-.716-.955-.714a10.652,10.652,0,0,1-2.866-.132,2.737,2.737,0,0,1-2.3-2.916c0-.584.009-1.167,0-1.751-.045-2.384,1.1-2.882,2.868-3.01,1.918-.138,3.853-.023,5.78-.038.4,0,.547.11.577.536.19,2.634.2,2.633-2.418,2.633-.934,0-1.869-.011-2.8.005-.518.008-1.017.084-1,.791.019.651.493.72.974.729.905.018,1.81,0,2.715.007a2.573,2.573,0,0,1,2.51,2.416q.052,1.313,0,2.627a2.719,2.719,0,0,1-2.774,2.641h-2.8" fill="#058cca"/>
    <path id="Path_6160" data-name="Path 6160" d="M83.434,14.071q0-3.153,0-6.306A2.885,2.885,0,0,1,85.87,4.73a13.808,13.808,0,0,1,2.44-.079c.311-.016.4.156.4.433-.006.409,0,.818,0,1.226,0,1.259,0,1.259-1.286,1.388a1.171,1.171,0,0,0-.976,1.218c.02.128.055.225.192.242.116.014.235,0,.35.019.562.077,1.492-.27,1.62.174a8.453,8.453,0,0,1,.064,2.778c-.021.353-.43.2-.661.2-1.745.026-1.565-.243-1.569,1.609-.007,2.306-.017,4.612.011,6.918.006.506-.066.7-.643.713-2.372.039-2.372.062-2.372-2.333Z" fill="#058cca"/>
    <path id="Path_6161" data-name="Path 6161" d="M123.855,15.594c0,1.051,0,2.1,0,3.152a2.72,2.72,0,0,1-2.808,2.806c-1.285.014-2.57,0-3.855,0a2.867,2.867,0,0,1-3.223-2.615,8.652,8.652,0,0,1,.125-3.64,2.947,2.947,0,0,1,3.078-2.064c1.782-.011,3.563-.019,5.344.006.606.009.929-.122.628-.78-.136-.3-.05-.617-.16-.933a1.976,1.976,0,0,0-2.11-1.582c-1.957-.009-3.914,0-5.87,0-.205,0-.409,0-.614,0-.313-.005-.5-.143-.483-.479.014-.381.305-.281.516-.282,1.373-.007,2.745,0,4.118,0h2.19a2.973,2.973,0,0,1,3.122,3.09c.014,1.109,0,2.219,0,3.328m-4.081-1.569h-2.537a2.27,2.27,0,0,0-2.471,1.941,8.8,8.8,0,0,0-.056,2.77,2.183,2.183,0,0,0,2.53,2.029c1.312,0,2.625.015,3.937,0a1.851,1.851,0,0,0,1.9-1.865c.022-1.428-.011-2.857.014-4.285.008-.462-.15-.607-.6-.593-.9.028-1.808.008-2.712.008" fill="#058cca"/>
    <path id="Path_6162" data-name="Path 6162" d="M143.757,12.1q0,3.021,0,6.042a3.065,3.065,0,0,1-3.378,3.411c-1.081,0-2.165-.051-3.242.012a2.954,2.954,0,0,1-3.459-3.029,33.092,33.092,0,0,1,.114-6.806,2.967,2.967,0,0,1,3.034-2.554c1.723-.006,3.449-.057,5.168.022.888.041,1.1-.259,1.026-1.075a21.4,21.4,0,0,1-.01-2.363c.005-.254-.144-.619.35-.636.565-.02.39.4.391.67.012,2.1.007,4.2.007,6.306m-.741,2.321c0-1.138-.053-2.279.018-3.413.051-.824-.169-1.123-1.042-1.085-1.632.07-3.269.019-4.9.021a2.425,2.425,0,0,0-2.653,2.573c-.043,1.984-.034,3.969,0,5.953a2.107,2.107,0,0,0,2.293,2.287c1.226.031,2.454.036,3.679,0a2.527,2.527,0,0,0,2.611-2.746c0-1.2,0-2.393,0-3.589" fill="#058cca"/>
    <path id="Path_6163" data-name="Path 6163" d="M103.949,15.384a22.078,22.078,0,0,0,.146,3.363,2.169,2.169,0,0,0,2.392,2.017c1.372.006,2.745-.007,4.117.008.245,0,.6-.151.623.356.022.542-.332.436-.629.424a33.1,33.1,0,0,1-5.232-.151,2.678,2.678,0,0,1-2.031-2.343c-.044-2.5-.05-5,0-7.5A2.576,2.576,0,0,1,105.8,9.185c1.6-.034,3.211-.01,4.818-.007.25,0,.54-.071.549.355.012.473-.308.409-.591.41-1.345,0-2.688,0-4.031,0-1.793,0-2.546.724-2.592,2.522-.023.9,0,1.809,0,2.917" fill="#058cca"/>
    <path id="Path_6164" data-name="Path 6164" d="M127.457,16.533c0-1.369,0-2.739,0-4.108A3.135,3.135,0,0,1,131.3,9.171c.236.038.372.083.379.355.007.3-.114.43-.409.417-.116-.006-.234.012-.349,0-2-.214-2.737,1.271-2.711,2.792.047,2.68.019,5.361.006,8.041,0,.3.188.78-.408.766-.542-.013-.338-.457-.342-.727-.019-1.427-.009-2.854-.009-4.282" fill="#058cca"/>
  </g>
</svg>
