<svg xmlns="http://www.w3.org/2000/svg" xmlns:xlink="http://www.w3.org/1999/xlink" width="80.283" height="28.174" viewBox="0 0 80.283 28.174">
  <defs>
    <clipPath id="clip-path">
      <rect id="Rectangle_4058" data-name="Rectangle 4058" width="80.283" height="28.174" transform="translate(0 0)" fill="none"/>
    </clipPath>
  </defs>
  <g id="Group_3896" data-name="Group 3896" transform="translate(0 0)">
    <g id="Group_3895" data-name="Group 3895" clip-path="url(#clip-path)">
      <path id="Path_6190" data-name="Path 6190" d="M21.672,17.739c.474.182.656.892.692,1.2.073.565-.09.784-.273.784s-.437-.219-.71-.656a1.332,1.332,0,0,1-.237-1.184A.4.4,0,0,1,21.672,17.739ZM18.9,19.8a1.422,1.422,0,0,1,.911.382c.564.474.728,1.02.437,1.421a.962.962,0,0,1-.747.327,1.3,1.3,0,0,1-.856-.309,1.2,1.2,0,0,1-.328-1.566A.7.7,0,0,1,18.9,19.8M12.53,25.06a12.509,12.509,0,1,1,10.764-6.1.083.083,0,0,1-.146-.037A5.819,5.819,0,0,0,18.1,13.641c-.237-.037-.274-.182.036-.219a12.461,12.461,0,0,1,2.641.055,8.443,8.443,0,0,0,.055-.965A8.287,8.287,0,1,0,12.548,20.8h.382a11.145,11.145,0,0,1-.164-2.241c.019-.51.128-.583.346-.182a8.646,8.646,0,0,0,5.992,4.48A12.194,12.194,0,0,1,27.172,27.7c.255.309-.127.637-.419.382-2.877-2.55-5.5-3.388-7.885-3.388-2.678.019-4.5.365-6.339.365Z" fill="#ff8c00"/>
      <path id="Path_6191" data-name="Path 6191" d="M52.254,6.964V21.233a.387.387,0,0,1-.378.4H48.947a.386.386,0,0,1-.394-.378V6.964a.386.386,0,0,1,.378-.4h2.928a.387.387,0,0,1,.4.377v.018" fill="#ff8c00"/>
      <path id="Path_6192" data-name="Path 6192" d="M74.971,6.569a.664.664,0,0,1,.395.17.359.359,0,0,1,.057.338l-4.8,14.3a.4.4,0,0,1-.367.255h-2.6a.364.364,0,0,1-.367-.255l-2.8-8.335-2.8,8.334a.4.4,0,0,1-.367.255h-2.6a.362.362,0,0,1-.367-.255l-4.8-14.3a.374.374,0,0,1,.056-.338.355.355,0,0,1,.311-.17h3.249a.39.39,0,0,1,.368.282L60.107,15.3l2.826-8.448A.4.4,0,0,1,63.3,6.6h2.289a.364.364,0,0,1,.367.255L68.782,15.3l2.572-8.448a.389.389,0,0,1,.367-.282h3.25Z" fill="#ff8c00"/>
      <path id="Path_6193" data-name="Path 6193" d="M79.888,6.569a.424.424,0,0,1,.395.4v14.27a.386.386,0,0,1-.377.4H76.978a.387.387,0,0,1-.4-.378V6.964a.387.387,0,0,1,.378-.4h2.928Z" fill="#ff8c00"/>
      <path id="Path_6194" data-name="Path 6194" d="M46.862,21.123l-2.381-2.776a8.028,8.028,0,1,0-2.37,2.348l.587.733a.433.433,0,0,0,.373.169h3.554a.287.287,0,0,0,.237-.474m-5.123-5.574H38.467a.314.314,0,0,0-.226.519L39.8,17.953a3.961,3.961,0,0,1-1.952.485,4.224,4.224,0,0,1-4.153-4.356,4.159,4.159,0,1,1,8.306,0,4.228,4.228,0,0,1-.26,1.467" fill="#ff8c00"/>
    </g>
  </g>
</svg>
