<svg xmlns="http://www.w3.org/2000/svg" xmlns:xlink="http://www.w3.org/1999/xlink" id="Group_3879" data-name="Group 3879" width="79.137" height="25.796" viewBox="0 0 79.137 25.796">
  <defs>
    <clipPath id="clip-path">
      <rect id="Rectangle_4050" data-name="Rectangle 4050" width="79.137" height="25.796" transform="translate(0 0)" fill="none"/>
    </clipPath>
  </defs>
  <g id="Group_3878" data-name="Group 3878" clip-path="url(#clip-path)">
    <path id="Path_6137" data-name="Path 6137" d="M79.136,25.246H73.169c-.184-1.01-.459-2.111-.643-3.121-.091-.459-.183-.643-.734-.551H64.631c-.367,0-.551.092-.642.459-.368,1.01-.735,1.928-1.1,2.938-.092.092-.184.275-.367.275H56c.368-1.01.827-1.928,1.194-2.846C59.949,15.7,62.7,9.089,65.549,2.387a2.877,2.877,0,0,1,3.03-2.02h5.233c.183.826.367,1.652.551,2.387,1.377,6.61,2.754,13.128,4.131,19.738q.274,1.239.551,2.479a.717.717,0,0,1,.091.275m-7.8-8.813q-.964-4.545-1.928-9.089L66.1,16.433Z" fill="#1534cc"/>
    <path id="Path_6138" data-name="Path 6138" d="M53.156,0c.826.184,1.561.275,2.387.459.734.184,1.377.367,2.2.643-.459,1.744-.826,3.488-1.193,5.233-1.01-.276-1.928-.643-2.938-.827a8.588,8.588,0,0,0-4.039,0,5.1,5.1,0,0,0-1.561.827,1.376,1.376,0,0,0,0,2.2,10.849,10.849,0,0,0,1.652,1.193c1.286.827,2.663,1.469,3.948,2.3a6.224,6.224,0,0,1,2.846,4.223,7.659,7.659,0,0,1-3.489,7.62,12.633,12.633,0,0,1-5.692,1.836,20.875,20.875,0,0,1-8.262-.918c-.184-.092-.367-.092-.551-.184-.092,0-.092-.092-.184-.092.368-1.836.735-3.58,1.194-5.416.459.183.918.367,1.285.55a11.419,11.419,0,0,0,6.518.827,3.833,3.833,0,0,0,1.653-.735,1.763,1.763,0,0,0,.184-2.938,17.434,17.434,0,0,0-2.112-1.468c-1.193-.735-2.387-1.286-3.489-2.112a5.892,5.892,0,0,1-2.57-4.131A7.124,7.124,0,0,1,43.7,2.571,11.3,11.3,0,0,1,49.851.184c.092,0,.275-.092.367-.092C51.228,0,52.146,0,53.156,0" fill="#1534cc"/>
    <path id="Path_6139" data-name="Path 6139" d="M30.021.459c-.368.826-.644,1.561-1.011,2.387-3.029,7.344-6.151,14.689-9.18,22.033-.184.368-.368.459-.642.459H13.4a.607.607,0,0,1-.642-.55Q10.281,15.148,7.8,5.508A3.3,3.3,0,0,0,5.784,3.03,29.818,29.818,0,0,0,.275,1.193.338.338,0,0,1,0,1.1C0,.367,0,.367.735.367H10.924a2.908,2.908,0,0,1,3.031,2.571c.826,4.5,1.744,9.089,2.57,13.587,0,.184.091.367.091.643.092-.184.184-.276.184-.368C18.911,11.476,21.024,6.059,23.135.734a.5.5,0,0,1,.55-.367h5.876a.829.829,0,0,0,.46.092" fill="#1534cc"/>
    <path id="Path_6140" data-name="Path 6140" d="M27.45,25.338C29.194,16.984,30.939,8.813,32.775.459H39.2c-.275,1.285-.551,2.478-.826,3.764C36.906,11.016,35.437,17.9,34.06,24.695c-.092.459-.275.643-.734.643H27.45Z" fill="#1534cc"/>
  </g>
</svg>