<svg id="Group_3898" data-name="Group 3898" xmlns="http://www.w3.org/2000/svg" xmlns:xlink="http://www.w3.org/1999/xlink" width="118.749" height="28.432" viewBox="0 0 118.749 28.432">
  <defs>
    <clipPath id="clip-path">
      <rect id="Rectangle_4069" data-name="Rectangle 4069" width="118.749" height="28.432" transform="translate(0 0)" fill="none"/>
    </clipPath>
  </defs>
  <g id="Group_3897" data-name="Group 3897" clip-path="url(#clip-path)">
    <path id="Path_6195" data-name="Path 6195" d="M14.216,0a14.141,14.141,0,0,1,6.229,1.441q.443.213.886.464L20.022,3.078,18.057,1.046l-3.319,2.96L12.766,1.854,6.584,7.426l3.965,4.367L8.992,13.164l3.9,4.375-1.549,1.366,5.579,6.208,3.31-3.048L23.1,25.333a15.14,15.14,0,0,1-1.873,1.243,14.1,14.1,0,0,1-7.009,1.856A14.216,14.216,0,0,1,14.216,0" fill="#0761af" fill-rule="evenodd"/>
    <rect id="Rectangle_4059" data-name="Rectangle 4059" width="4.551" height="4.549" transform="translate(11.625 13.319) rotate(-42.016)" fill="#0761af"/>
    <rect id="Rectangle_4060" data-name="Rectangle 4060" width="4.549" height="4.549" transform="matrix(0.743, -0.669, 0.669, 0.743, 14.029, 19.159)" fill="#0761af"/>
    <rect id="Rectangle_4061" data-name="Rectangle 4061" width="4.549" height="4.549" transform="translate(9.207 7.544) rotate(-41.998)" fill="#0761af"/>
    <rect id="Rectangle_4062" data-name="Rectangle 4062" width="3.412" height="3.411" transform="translate(15.41 5.907) rotate(-42.006)" fill="#0761af"/>
    <rect id="Rectangle_4063" data-name="Rectangle 4063" width="3.412" height="3.411" transform="translate(19.916 16.362) rotate(-41.959)" fill="#0761af"/>
    <rect id="Rectangle_4064" data-name="Rectangle 4064" width="3.412" height="3.411" transform="matrix(0.744, -0.669, 0.669, 0.744, 22.145, 21.483)" fill="#0761af"/>
    <rect id="Rectangle_4065" data-name="Rectangle 4065" width="2.273" height="2.275" transform="matrix(0.743, -0.669, 0.669, 0.743, 23.168, 9.745)" fill="#0761af"/>
    <rect id="Rectangle_4066" data-name="Rectangle 4066" width="2.274" height="2.276" transform="matrix(0.743, -0.669, 0.669, 0.743, 21.007, 4.723)" fill="#0761af"/>
    <rect id="Rectangle_4067" data-name="Rectangle 4067" width="2.275" height="2.274" transform="translate(25.328 14.769) rotate(-42.008)" fill="#0761af"/>
    <rect id="Rectangle_4068" data-name="Rectangle 4068" width="3.411" height="3.412" transform="translate(17.748 11.005) rotate(-42.006)" fill="#0761af"/>
    <path id="Path_6196" data-name="Path 6196" d="M72.129,6.7l-.09.058L71.95,6.7a3.159,3.159,0,0,0-2.273-.839c-2.067,0-3.413,1.438-3.413,3.682v10.5h2.064V9.538c0-1.5,1.019-1.616,1.349-1.616a1.449,1.449,0,0,1,.895.3,1.746,1.746,0,0,1,.451,1.317v10.5h2.064V9.538c0-1.5,1.019-1.616,1.346-1.616a1.453,1.453,0,0,1,.9.3,1.749,1.749,0,0,1,.448,1.317v10.5h2.064V9.538a3.826,3.826,0,0,0-1.016-2.785,3.435,3.435,0,0,0-2.394-.9,3.261,3.261,0,0,0-2.3.839" fill="#0761af" fill-rule="evenodd"/>
    <path id="Path_6197" data-name="Path 6197" d="M87.181,10.7a4.847,4.847,0,0,0-6.7,0,5.982,5.982,0,0,0-1.288,4.1,5.95,5.95,0,0,0,1.288,4.07,4.847,4.847,0,0,0,6.7,0,5.948,5.948,0,0,0,1.286-4.07,5.98,5.98,0,0,0-1.286-4.1m-.81,4.548a4.042,4.042,0,0,1-.747,2.9,2.482,2.482,0,0,1-1.824.689,2.442,2.442,0,0,1-1.768-.689,4.042,4.042,0,0,1-.747-2.9v-.927a3.937,3.937,0,0,1,.747-2.874,2.336,2.336,0,0,1,1.768-.718,2.375,2.375,0,0,1,1.824.718,3.936,3.936,0,0,1,.747,2.874v.927" fill="#0761af" fill-rule="evenodd"/>
    <path id="Path_6198" data-name="Path 6198" d="M90.172,9.538l1.737.029V10.5a5.93,5.93,0,0,1,1.467-.808,3.815,3.815,0,0,1,1.705-.329,3.205,3.205,0,0,1,2.571,1.016,3.935,3.935,0,0,1,.869,2.663v6.973H96.607V12.888a1.883,1.883,0,0,0-1.977-2.154,3.87,3.87,0,0,0-2.571,1.077v8.2H90.172Z" fill="#0761af" fill-rule="evenodd"/>
    <path id="Path_6199" data-name="Path 6199" d="M107.888,17.976a7.919,7.919,0,0,1-1.228.478,4.935,4.935,0,0,1-1.615.269,3.206,3.206,0,0,1-2.365-.868,3.205,3.205,0,0,1-.747-2.333v-.27h6.462v-.477c0-1.676-.059-3.054-1.106-4.16a4.067,4.067,0,0,0-3.052-1.257,4.176,4.176,0,0,0-3.2,1.376,5.78,5.78,0,0,0-1.2,3.89,6.17,6.17,0,0,0,1.257,4.1,4.684,4.684,0,0,0,3.65,1.5,6.606,6.606,0,0,0,2.455-.42,13.514,13.514,0,0,0,1.288-.6Zm-5.955-4.339a3.211,3.211,0,0,1,.689-2.214,2.256,2.256,0,0,1,3.051-.18,2.711,2.711,0,0,1,.689,2.185v.449h-4.429v-.24" fill="#0761af" fill-rule="evenodd"/>
    <path id="Path_6200" data-name="Path 6200" d="M118.749,9.567,114.65,21.9a5.731,5.731,0,0,1-.987,1.945,2.672,2.672,0,0,1-2.067.868,3.3,3.3,0,0,1-1.644-.419,4.113,4.113,0,0,1-.869-.66l.9-1.135a3.662,3.662,0,0,0,.538.417,1.969,1.969,0,0,0,.99.269,1.36,1.36,0,0,0,1.106-.536,6.368,6.368,0,0,0,.567-1.288l.241-.836-4.4-10.954h2.064l2.632,6.554a13.675,13.675,0,0,1,.6,1.855h.09c.33-1.256.48-1.676.749-2.454l1.885-5.955Z" fill="#0761af" fill-rule="evenodd"/>
    <path id="Path_6201" data-name="Path 6201" d="M38.225,19.412l.061-.09.089.09a3.462,3.462,0,0,0,5.715-2.843V6.067H42v10.5c0,1.5-1.019,1.587-1.317,1.587a1.214,1.214,0,0,1-.9-.3,1.67,1.67,0,0,1-.449-1.286V6.067h-2.1v10.5c0,1.5-1.016,1.587-1.346,1.587a1.19,1.19,0,0,1-.869-.3,1.681,1.681,0,0,1-.448-1.286V6.067H32.481v10.5A3.8,3.8,0,0,0,33.5,19.322a3.371,3.371,0,0,0,2.394.929,3.541,3.541,0,0,0,2.333-.839" fill="#0761af" fill-rule="evenodd"/>
    <path id="Path_6202" data-name="Path 6202" d="M53.7,17.976a9.855,9.855,0,0,1-1.2.478,4.935,4.935,0,0,1-1.615.269,3.2,3.2,0,0,1-2.365-.868,3.358,3.358,0,0,1-.718-2.333v-.27h6.4v-.477c0-1.676-.058-3.054-1.077-4.16a4.174,4.174,0,0,0-3.082-1.227A4.227,4.227,0,0,0,46.9,10.734a5.733,5.733,0,0,0-1.2,3.89,6.135,6.135,0,0,0,1.228,4.1,4.833,4.833,0,0,0,3.65,1.5,6.776,6.776,0,0,0,2.455-.449,8.379,8.379,0,0,0,1.256-.6Zm-5.9-4.339a3.126,3.126,0,0,1,.689-2.214,2.005,2.005,0,0,1,1.555-.689,2.035,2.035,0,0,1,1.467.538,2.654,2.654,0,0,1,.689,2.186v.419H47.8v-.24" fill="#0761af" fill-rule="evenodd"/>
    <path id="Path_6203" data-name="Path 6203" d="M63.091,10.436a4.385,4.385,0,0,0-2.872-1.048,8.379,8.379,0,0,0-1.346.15c-.3.09-.689.238-1.019.359V5.8H55.969V19.114a7.634,7.634,0,0,0,3.92,1.106,4.388,4.388,0,0,0,3.682-1.644,6.388,6.388,0,0,0,1.045-3.833c0-1.135-.087-3.08-1.525-4.307m-3.231.3a2.786,2.786,0,0,1,2.006.749,3.929,3.929,0,0,1,.657,2.722v.9a4.888,4.888,0,0,1-.57,2.875,2.431,2.431,0,0,1-2,.868,5.545,5.545,0,0,1-1.228-.211,5.653,5.653,0,0,1-.868-.42V11.362" fill="#0761af" fill-rule="evenodd"/>
  </g>
</svg>
